<?xml version="1.0" encoding="UTF-8" standalone="no"?><!DOCTYPE svg PUBLIC "-//W3C//DTD SVG 1.1//EN" "http://www.w3.org/Graphics/SVG/1.1/DTD/svg11.dtd"><svg width="100%" height="100%" viewBox="0 0 2076 556" version="1.1" xmlns="http://www.w3.org/2000/svg" xmlns:xlink="http://www.w3.org/1999/xlink" xml:space="preserve" style="fill-rule:evenodd;clip-rule:evenodd;stroke-linejoin:round;stroke-miterlimit:1.41421;"><path id="BG-.--Red" d="M2076,16.68c0,-9.206 -7.474,-16.68 -16.68,-16.68l-2042.64,0c-9.206,0 -16.68,7.474 -16.68,16.68l0,522.64c0,9.206 7.474,16.68 16.68,16.68l2042.64,0c9.206,0 16.68,-7.474 16.68,-16.68l0,-522.64Z" style="fill:#850013;"/><path id="BG-.--Red1" d="M2076,16.68c0,-9.206 -7.474,-16.68 -16.68,-16.68l-2042.64,0c-9.206,0 -16.68,7.474 -16.68,16.68l0,522.64c0,9.206 7.474,16.68 16.68,16.68l2042.64,0c9.206,0 16.68,-7.474 16.68,-16.68l0,-522.64Z" style="fill:#850013;"/><path id="BG-.--Red2" d="M43.239,24c-8.411,0 -15.24,6.829 -15.24,15.24l0,477.52c0,8.411 6.829,15.24 15.24,15.24l1989.52,0c8.411,0 15.24,-6.829 15.24,-15.24l0,-477.52c0,-8.411 -6.829,-15.24 -15.24,-15.24l-1989.52,0Z" style="fill:url(#_Linear1);"/><g id="Text"><g id="Txt-.--Current"><text id="WOT" x="445.302px" y="452.569px" style="font-family:'TimesNewRomanPS-BoldMT', 'Times New Roman', serif;font-weight:700;font-size:201.083px;fill:#fff;">M<tspan x="632.273px 768.087px 955.059px 1111.35px 1257.36px 1341.84px 1487.85px " y="452.569px 452.569px 452.569px 452.569px 452.569px 452.569px 452.569px ">EMORIAL</tspan></text><text id="WOT1" x="158.82px" y="225.956px" style="font-family:'TimesNewRomanPS-BoldMT', 'Times New Roman', serif;font-weight:700;font-size:201.083px;fill:#fff;">W<tspan x="335.687px 481.696px 627.705px 686.466px 842.761px 988.77px 1044.19px 1180.01px 1315.82px 1461.83px 1607.84px 1764.13px " y="225.956px 225.956px 225.956px 225.956px 225.956px 225.956px 225.956px 225.956px 225.956px 225.956px 225.956px 225.956px ">AR ON TERROR</tspan></text></g></g><defs><linearGradient id="_Linear1" x1="0" y1="0" x2="1" y2="0" gradientUnits="userSpaceOnUse" gradientTransform="matrix(3.1106e-14,-508,2020,1.23689e-13,1038,532)"><stop offset="0" style="stop-color:#050315;stop-opacity:1"/><stop offset="1" style="stop-color:#002254;stop-opacity:1"/></linearGradient></defs></svg>