<?xml version="1.0" encoding="UTF-8" standalone="no"?><!DOCTYPE svg PUBLIC "-//W3C//DTD SVG 1.1//EN" "http://www.w3.org/Graphics/SVG/1.1/DTD/svg11.dtd"><svg width="100%" height="100%" viewBox="0 0 2076 556" version="1.1" xmlns="http://www.w3.org/2000/svg" xmlns:xlink="http://www.w3.org/1999/xlink" xml:space="preserve" style="fill-rule:evenodd;clip-rule:evenodd;stroke-linejoin:round;stroke-miterlimit:1.41421;"><path id="BG-.--Red" d="M2076,16.68c0,-9.206 -7.474,-16.68 -16.68,-16.68l-2042.64,0c-9.206,0 -16.68,7.474 -16.68,16.68l0,522.64c0,9.206 7.474,16.68 16.68,16.68l2042.64,0c9.206,0 16.68,-7.474 16.68,-16.68l0,-522.64Z" style="fill:#850013;"/><path id="BG-.--Red1" d="M43.239,24c-8.411,0 -15.24,6.829 -15.24,15.24l0,477.52c0,8.411 6.829,15.24 15.24,15.24l1989.52,0c8.411,0 15.24,-6.829 15.24,-15.24l0,-477.52c0,-8.411 -6.829,-15.24 -15.24,-15.24l-1989.52,0Z" style="fill:url(#_Linear1);"/><text id="Txt-.--WoT-Memorial" x="150.859px" y="472.166px" style="font-family:'TimesNewRomanPSMT', 'Times New Roman', serif;font-size:178.131px;fill:#fff;">W<tspan x="304.723px 383.785px " y="472.166px 472.166px ">ar</tspan> on <tspan x="707.082px 803.454px 882.517px " y="472.166px 472.166px 472.166px ">Ter</tspan>ror Memorial</text><rect x="47.999" y="280" width="804" height="8" style="fill:#fff;"/><text id="Txt-.--Presents" x="863.684px" y="310.208px" style="font-family:'TimesNewRomanPSMT', 'Times New Roman', serif;font-size:104.992px;fill:#fff;">Presents</text><rect x="1224" y="280" width="804" height="8" style="fill:#fff;"/><text id="Txt-.--WoT-Foundation" x="108.859px" y="189.499px" style="font-family:'TimesNewRomanPSMT', 'Times New Roman', serif;font-size:178.131px;fill:#fff;">W<tspan x="262.723px 341.785px " y="189.499px 189.499px ">ar</tspan> on <tspan x="665.082px 761.454px 840.517px " y="189.499px 189.499px 189.499px ">Ter</tspan>ror Foundation</text><defs><linearGradient id="_Linear1" x1="0" y1="0" x2="1" y2="0" gradientUnits="userSpaceOnUse" gradientTransform="matrix(3.1106e-14,-508,2020,1.23689e-13,1038,532)"><stop offset="0" style="stop-color:#050315;stop-opacity:1"/><stop offset="1" style="stop-color:#002254;stop-opacity:1"/></linearGradient></defs></svg>