<?xml version="1.0" encoding="UTF-8" standalone="no"?><!DOCTYPE svg PUBLIC "-//W3C//DTD SVG 1.1//EN" "http://www.w3.org/Graphics/SVG/1.1/DTD/svg11.dtd"><svg width="100%" height="100%" viewBox="0 0 276 276" version="1.1" xmlns="http://www.w3.org/2000/svg" xmlns:xlink="http://www.w3.org/1999/xlink" xml:space="preserve" style="fill-rule:evenodd;clip-rule:evenodd;stroke-linejoin:round;stroke-miterlimit:1.41421;"><rect x="40.137" y="81.321" width="190.564" height="113.082" style="fill:#fff;"/><path d="M137.862,0c-76.136,0 -137.862,61.726 -137.862,137.862c0,76.14 61.726,137.862 137.862,137.862c76.139,0 137.862,-61.723 137.862,-137.862c0.001,-76.136 -61.723,-137.862 -137.862,-137.862Zm-12.223,148.395l-49.969,28.656c-8.606,4.93 -15.583,0.891 -15.583,-9.041l0,-57.115c0,-9.926 6.978,-13.973 15.583,-9.03l49.969,28.656c8.606,4.934 8.606,12.934 0,17.874Zm35.732,18.299c0,9.922 -5.442,17.968 -12.169,17.968c-6.722,0 -12.171,-8.046 -12.171,-17.968l0,-54.484c0,-9.921 5.449,-17.971 12.171,-17.971c6.727,0 12.169,8.05 12.169,17.971l0,54.484Zm50.507,0c0,9.922 -5.447,17.968 -12.174,17.968c-6.726,0 -12.174,-8.046 -12.174,-17.968l0,-54.484c0,-9.921 5.448,-17.971 12.174,-17.971c6.727,0 12.174,8.05 12.174,17.971l0,54.484Z" style="fill:#0f5ea8;fill-rule:nonzero;"/></svg>