<?xml version="1.0" encoding="UTF-8" standalone="no"?><!DOCTYPE svg PUBLIC "-//W3C//DTD SVG 1.1//EN" "http://www.w3.org/Graphics/SVG/1.1/DTD/svg11.dtd"><svg width="100%" height="100%" viewBox="0 0 512 512" version="1.1" xmlns="http://www.w3.org/2000/svg" xmlns:xlink="http://www.w3.org/1999/xlink" xml:space="preserve" style="fill-rule:evenodd;clip-rule:evenodd;stroke-linejoin:round;stroke-miterlimit:1.41421;"><circle cx="256" cy="256" r="256" style="fill:#0f5ea8;"/><path d="M256.902,511.977c131.977,-0.459 240.419,-100.765 253.717,-229.333l-162.426,-162.407c-0.165,-0.201 -0.363,-0.433 -0.595,-0.628l-2.514,-2.51c-0.198,-0.231 -0.429,-0.429 -0.624,-0.598c-9.814,-8.952 -22.858,-14.369 -37.161,-14.369c-27.096,0 -49.598,19.515 -54.312,45.248l-0.026,-0.023l-28.177,-28.147l-0.162,-0.162c-0.462,-0.479 -0.928,-0.945 -1.41,-1.407l-0.149,-0.149c-0.135,-0.129 -0.284,-0.241 -0.423,-0.37c-1.047,-0.988 -2.121,-1.946 -3.244,-2.847c-0.429,-0.344 -0.882,-0.654 -1.318,-0.984c-0.908,-0.69 -1.82,-1.381 -2.778,-2.012c-0.684,-0.453 -1.401,-0.856 -2.104,-1.278c-0.77,-0.462 -1.526,-0.941 -2.322,-1.364c-0.898,-0.482 -1.837,-0.902 -2.768,-1.335c-0.654,-0.304 -1.295,-0.638 -1.965,-0.915c-1.07,-0.449 -2.18,-0.823 -3.287,-1.202c-0.575,-0.198 -1.133,-0.429 -1.714,-0.611c-1.199,-0.367 -2.431,-0.654 -3.663,-0.941c-0.529,-0.122 -1.041,-0.284 -1.576,-0.393c-1.321,-0.264 -2.672,-0.443 -4.023,-0.614c-0.476,-0.059 -0.935,-0.162 -1.417,-0.208c-1.833,-0.185 -3.696,-0.281 -5.579,-0.281c-27.556,0 -50.335,20.186 -54.516,46.569l-0.053,-0.059c-0.106,0.664 -0.159,1.348 -0.241,2.022c-0.066,0.525 -0.142,1.05 -0.195,1.582c-0.155,1.701 -0.258,3.412 -0.258,5.15c0,1.612 0.089,3.204 0.225,4.78c0.04,0.482 0.102,0.958 0.159,1.437c0.126,1.12 0.281,2.23 0.476,3.33c0.086,0.499 0.175,1.004 0.277,1.5c0.238,1.173 0.519,2.335 0.832,3.482c0.092,0.344 0.172,0.697 0.271,1.037c0.439,1.49 0.935,2.956 1.49,4.393c0.089,0.221 0.192,0.439 0.281,0.657c0.489,1.219 1.024,2.411 1.595,3.587c0.175,0.353 0.353,0.707 0.538,1.057c0.565,1.09 1.163,2.16 1.794,3.211c0.165,0.268 0.32,0.538 0.482,0.803c1.698,2.705 3.617,5.255 5.744,7.621l0,0.003c0.026,0.026 0.05,0.05 0.069,0.073c1.292,1.43 2.649,2.788 4.076,4.073c0.02,0.017 0.033,0.033 0.05,0.046l13.081,13.081l0,12.985l-23.78,0l11.891,31.443l11.892,11.892l0,33.462c0,2.543 0.994,5.051 2.91,7l53.905,53.909l0.01,0.01l-40.504,70.187l79.519,79.517Z" style="fill:#00488b;fill-rule:nonzero;"/><path d="M240.141,157.385c0,30.519 -24.741,55.266 -55.263,55.266c-30.515,0 -55.253,-24.748 -55.253,-55.266c0,-30.509 24.735,-55.256 55.253,-55.256c30.522,0 55.263,24.745 55.263,55.256Z" style="fill:#222;fill-rule:nonzero;"/><circle cx="184.882" cy="157.385" r="21.25" style="fill:#3e3e3e;"/><g><path d="M190.827,157.385c0,3.3 -2.659,5.959 -5.949,5.959c-3.283,0 -5.949,-2.659 -5.949,-5.959c0,-3.283 2.666,-5.946 5.949,-5.946c3.29,0.001 5.949,2.66 5.949,5.946Z" style="fill:#222;fill-rule:nonzero;"/><path d="M362.555,157.385c0,30.519 -24.735,55.266 -55.26,55.266c-30.515,0 -55.253,-24.748 -55.253,-55.266c0,-30.509 24.735,-55.256 55.253,-55.256c30.526,0 55.26,24.745 55.26,55.256Z" style="fill:#222;fill-rule:nonzero;"/></g><circle cx="307.299" cy="157.385" r="21.253" style="fill:#3e3e3e;"/><g><path d="M313.245,157.385c0,3.3 -2.659,5.959 -5.949,5.959c-3.283,0 -5.956,-2.659 -5.956,-5.959c0,-3.283 2.672,-5.946 5.956,-5.946c3.29,0.001 5.949,2.66 5.949,5.946Z" style="fill:#222;fill-rule:nonzero;"/><rect x="331.115" y="233.043" width="13.599" height="45.902" style="fill:#222;"/><rect x="390.606" y="200.747" width="13.599" height="110.506" style="fill:#222;"/></g><path d="M390.613,299.352l-45.908,-20.398l0,-45.902l45.908,-20.4l0,86.7Z" style="fill:#3e3e3e;fill-rule:nonzero;"/><rect x="223.133" y="311.263" width="45.898" height="13.603" style="fill:#222;"/><rect x="231.622" y="324.872" width="28.903" height="13.609" style="fill:#3e3e3e;"/><g><path d="M260.535,338.468l-28.903,0l-54.259,93.984l2.841,0l58.804,-75.826l5.982,75.826l2.18,0l5.983,-75.826l58.79,75.826l2.848,0l-54.266,-93.984Z" style="fill:#222;fill-rule:nonzero;"/><path d="M149.174,256.003l-11.902,-31.45l23.807,0l0,31.45l-11.905,0Z" style="fill:#222;fill-rule:nonzero;"/></g><path d="M331.102,301.347c0,2.537 -0.968,5.07 -2.904,7.006c-1.936,1.936 -4.473,2.904 -7.006,2.904l-150.204,0c-2.537,0 -5.07,-0.968 -7.006,-2.904c-1.936,-1.936 -2.904,-4.473 -2.904,-7.006l0,-90.69c0,-2.537 0.968,-5.07 2.904,-7.006c1.936,-1.936 4.473,-2.904 7.006,-2.904l150.208,0c2.537,0 5.07,0.968 7.006,2.904c1.936,1.936 2.904,4.473 2.904,7.006l0,90.69l-0.004,0Z" style="fill:#3e3e3e;fill-rule:nonzero;"/><rect x="172.99" y="212.662" width="146.234" height="86.71" style="fill:#222;"/><g><rect x="283.483" y="224.553" width="23.8" height="62.893" style="fill:#3e3e3e;"/><rect x="184.878" y="275.555" width="11.905" height="11.902" style="fill:#3e3e3e;"/></g></svg>