<?xml version="1.0" encoding="UTF-8" standalone="no"?><!DOCTYPE svg PUBLIC "-//W3C//DTD SVG 1.1//EN" "http://www.w3.org/Graphics/SVG/1.1/DTD/svg11.dtd"><svg width="100%" height="100%" viewBox="0 0 512 512" version="1.1" xmlns="http://www.w3.org/2000/svg" xmlns:xlink="http://www.w3.org/1999/xlink" xml:space="preserve" style="fill-rule:evenodd;clip-rule:evenodd;stroke-linejoin:round;stroke-miterlimit:1.41421;"><circle cx="256" cy="256" r="256" style="fill:#0f5ea8;"/><path d="M404.945,134.982c0,-15.425 -12.507,-27.927 -27.927,-27.927c-15.421,0 -27.927,12.502 -27.927,27.927l0,27.927l55.855,0l0,-27.927l-0.001,0Z" style="fill:#bebebe;fill-rule:nonzero;"/><path d="M377.018,107.055c-18.618,0 -27.927,18.618 -27.927,27.927l0,242.036c0,15.407 -12.521,27.927 -27.927,27.927l-176.873,0l0,-269.963c0,-15.407 12.521,-27.927 27.927,-27.927l204.8,0Z" style="fill:#fff;fill-rule:nonzero;"/><g><path d="M293.236,377.018l0,-27.927l-186.181,0l0,27.927c0,15.421 12.507,27.927 27.927,27.927l186.182,0c-15.421,0 -27.928,-12.506 -27.928,-27.927Z" style="fill:#bebebe;fill-rule:nonzero;"/><path d="M260.655,190.836c0,2.569 -2.085,4.655 -4.655,4.655l-69.818,0c-2.569,0 -4.655,-2.085 -4.655,-4.655c0,-2.569 2.085,-4.655 4.655,-4.655l69.818,0c2.569,0.001 4.655,2.086 4.655,4.655Z" style="fill:#bebebe;fill-rule:nonzero;"/><path d="M311.855,228.073c0,2.569 -2.085,4.655 -4.655,4.655l-121.018,0c-2.569,0 -4.655,-2.085 -4.655,-4.655c0,-2.569 2.085,-4.655 4.655,-4.655l121.018,0c2.569,0 4.655,2.085 4.655,4.655Z" style="fill:#bebebe;fill-rule:nonzero;"/><path d="M311.855,265.309c0,2.569 -2.085,4.655 -4.655,4.655l-121.018,0c-2.569,0 -4.655,-2.085 -4.655,-4.655c0,-2.57 2.085,-4.655 4.655,-4.655l121.018,0c2.569,0.001 4.655,2.086 4.655,4.655Z" style="fill:#bebebe;fill-rule:nonzero;"/><path d="M311.855,302.545c0,2.569 -2.085,4.655 -4.655,4.655l-121.018,0c-2.569,0 -4.655,-2.085 -4.655,-4.655c0,-2.569 2.085,-4.655 4.655,-4.655l121.018,0c2.569,0.001 4.655,2.086 4.655,4.655Z" style="fill:#bebebe;fill-rule:nonzero;"/></g></svg>