<?xml version="1.0" encoding="UTF-8" standalone="no"?><!DOCTYPE svg PUBLIC "-//W3C//DTD SVG 1.1//EN" "http://www.w3.org/Graphics/SVG/1.1/DTD/svg11.dtd"><svg width="100%" height="100%" viewBox="0 0 512 512" version="1.1" xmlns="http://www.w3.org/2000/svg" xmlns:xlink="http://www.w3.org/1999/xlink" xml:space="preserve" style="fill-rule:evenodd;clip-rule:evenodd;stroke-linejoin:round;stroke-miterlimit:1.41421;"><path d="M256,512c-141.156,0 -256,-114.844 -256,-256c0,-141.156 114.844,-256 256,-256c141.156,0 256,114.844 256,256c0,141.156 -114.844,256 -256,256Z" style="fill:#0f5ea8;fill-rule:nonzero;"/><g><path d="M291.31,397.241l-0.009,0c-4.875,0 -8.828,-3.953 -8.828,-8.828l0,-185.379c0,-4.875 3.953,-8.828 8.828,-8.828l0.009,0c4.879,0 8.828,-3.953 8.828,-8.828c0,-4.875 -3.948,-8.828 -8.828,-8.828l-70.62,0c-4.879,0 -8.828,3.953 -8.828,8.828c0,4.875 3.948,8.828 8.828,8.828l-0.009,0c4.875,0 8.828,3.953 8.828,8.828l0,185.379c0,4.875 -3.953,8.828 -8.828,8.828l0.009,0c-4.879,0 -8.828,3.953 -8.828,8.828c0,4.875 3.948,8.828 8.828,8.828l70.621,0c4.879,0 8.828,-3.953 8.828,-8.828c0,-4.875 -3.949,-8.828 -8.829,-8.828Z" style="fill:#fff;fill-rule:nonzero;"/><circle cx="256" cy="123.586" r="26.483" style="fill:#fff;"/></g></svg>