<?xml version="1.0" encoding="UTF-8" standalone="no"?><!DOCTYPE svg PUBLIC "-//W3C//DTD SVG 1.1//EN" "http://www.w3.org/Graphics/SVG/1.1/DTD/svg11.dtd"><svg width="100%" height="100%" viewBox="0 0 281 281" version="1.1" xmlns="http://www.w3.org/2000/svg" xmlns:xlink="http://www.w3.org/1999/xlink" xml:space="preserve" style="fill-rule:evenodd;clip-rule:evenodd;stroke-linejoin:round;stroke-miterlimit:1.41421;"><circle cx="140.014" cy="140.014" r="140.014" style="fill:#0f5ea8;"/><g><g><path d="M80.881,39.654l26.453,0c3.657,0 6.613,2.969 6.613,6.626l0,132.253c0,3.657 -2.956,6.613 -6.613,6.613l-26.453,0c-3.657,0 -6.614,-2.956 -6.614,-6.613l0,-132.259c0,-3.65 2.957,-6.62 6.614,-6.62Z" style="fill:#3f95d4;fill-rule:nonzero;"/><path d="M87.494,178.533l0,-132.259c0,-3.65 2.957,-6.62 6.613,-6.62l-13.226,0c-3.657,0 -6.614,2.969 -6.614,6.62l0,132.259c0,3.657 2.957,6.613 6.614,6.613l13.226,0c-3.656,0 -6.613,-2.962 -6.613,-6.613Z" style="fill:#367fb4;fill-rule:nonzero;"/><rect x="74.267" y="138.853" width="39.68" height="26.466" style="fill:#f7cb8b;fill-rule:nonzero;"/><path d="M120.56,13.201l39.68,0c3.657,0 6.613,2.969 6.613,6.626l0,158.706c0,3.657 -2.956,6.613 -6.613,6.613l-39.68,0c-3.657,0 -6.613,-2.956 -6.613,-6.613l0,-158.712c0,-3.651 2.956,-6.62 6.613,-6.62Z" style="fill:#349886;fill-rule:nonzero;"/><path d="M133.787,158.7l13.227,0l0,-92.593l-13.227,0l0,92.593Zm0,-119.046l0,13.227l13.227,0l0,-13.227l-13.227,0Z" style="fill:#9accc3;fill-rule:nonzero;"/><path d="M173.467,52.881l39.679,0c3.657,0 6.614,2.969 6.614,6.613l0,119.039c0,3.657 -2.957,6.613 -6.614,6.613l-39.679,0c-3.657,0 -6.614,-2.956 -6.614,-6.613l0,-119.039c0,-3.644 2.957,-6.613 6.614,-6.613Z" style="fill:#e2574c;fill-rule:nonzero;"/><rect x="74.267" y="138.853" width="13.227" height="26.466" style="fill:#d2ad77;"/><path d="M127.174,178.533l0,-158.712c0,-3.65 2.956,-6.62 6.613,-6.62l-13.227,0c-3.657,0 -6.613,2.969 -6.613,6.62l0,158.713c0,3.657 2.956,6.613 6.613,6.613l13.227,0c-3.657,-0.001 -6.613,-2.963 -6.613,-6.614Z" style="fill:#2c8172;fill-rule:nonzero;"/><path d="M180.08,178.533l0,-119.039c0,-3.644 2.956,-6.613 6.613,-6.613l-13.226,0c-3.657,0 -6.614,2.969 -6.614,6.613l0,119.039c0,3.657 2.957,6.613 6.614,6.613l13.226,0c-3.657,0 -6.613,-2.962 -6.613,-6.613Z" style="fill:#c04a40;fill-rule:nonzero;"/><path d="M166.853,119.014l52.907,0l0,-26.454l-52.907,0l0,26.454Zm0,-39.68l0,6.627l52.907,0l0,-6.627l-52.907,0Z" style="fill:#f7cb8b;fill-rule:nonzero;"/><g><rect x="166.853" y="79.334" width="13.227" height="6.626" style="fill:#d2ad77;"/><rect x="166.853" y="92.56" width="13.227" height="26.453" style="fill:#d2ad77;"/></g></g><rect x="34.201" y="185.146" width="211.625" height="39.68" style="fill:#d99666;fill-rule:nonzero;"/></g></svg>