<?xml version="1.0" encoding="UTF-8" standalone="no"?><!DOCTYPE svg PUBLIC "-//W3C//DTD SVG 1.1//EN" "http://www.w3.org/Graphics/SVG/1.1/DTD/svg11.dtd"><svg width="100%" height="100%" viewBox="0 0 483 483" version="1.1" xmlns="http://www.w3.org/2000/svg" xmlns:xlink="http://www.w3.org/1999/xlink" xml:space="preserve" style="fill-rule:evenodd;clip-rule:evenodd;stroke-linejoin:round;stroke-miterlimit:1.41421;"><circle cx="241.1" cy="241.1" r="241.1" style="fill:#0f5ea8;"/><path d="M155,73.4l0,54l-54.1,0l0,281.4l255.4,0l0,-335.4l-201.3,0Z" style="fill:#fff;fill-rule:nonzero;"/><g><path d="M155,73.4l-54.1,54l54.1,0l0,-54Z" style="fill:#e6e9ee;fill-rule:nonzero;"/><rect x="132.7" y="283.3" width="191.2" height="14.7" style="fill:#bebebe;"/><rect x="132.7" y="314.2" width="191.2" height="14.7" style="fill:#bebebe;"/><rect x="132.7" y="345.2" width="113.3" height="14.7" style="fill:#bebebe;"/></g><path d="M306.721,268.558l17.041,-17.042l-34.789,-34.789l-17.041,17.041l34.789,34.79Z" style="fill:#2b3b4e;"/><circle cx="240.2" cy="184.9" r="76.5" style="fill:#324a5e;"/><circle cx="240.2" cy="184.9" r="59.1" style="fill:#97d1e9;"/><path d="M322.9,241.6l-26,26c-0.9,0.9 -0.9,2.5 0,3.4l70.2,70.2c0.9,0.9 2.5,0.9 3.4,0l26,-26c0.9,-0.9 0.9,-2.5 0,-3.4l-70.2,-70.2c-0.9,-0.9 -2.4,-0.9 -3.4,0Z" style="fill:#e6e9ee;fill-rule:nonzero;"/><path d="M307.873,282.053l48.365,48.365l29.416,-29.416l-48.365,-48.365l-29.416,29.416Z" style="fill:#830012;"/></svg>