<?xml version="1.0" encoding="UTF-8" standalone="no"?><!DOCTYPE svg PUBLIC "-//W3C//DTD SVG 1.1//EN" "http://www.w3.org/Graphics/SVG/1.1/DTD/svg11.dtd"><svg width="100%" height="100%" viewBox="0 0 513 513" version="1.1" xmlns="http://www.w3.org/2000/svg" xmlns:xlink="http://www.w3.org/1999/xlink" xml:space="preserve" style="fill-rule:evenodd;clip-rule:evenodd;stroke-linejoin:round;stroke-miterlimit:1.41421;"><circle cx="256.004" cy="256.004" r="256.004" style="fill:#0f5ea8;"/><path d="M511.684,268.678l-73.591,-73.591l-18.612,18.612l-81.039,-81.039l-235.015,235.014l144.176,144.176c2.794,0.09 5.589,0.151 8.405,0.151c137.134,0 249.077,-107.826 255.684,-243.319l-0.008,-0.004Z" style="fill:#00488b;fill-rule:nonzero;"/><path d="M438.095,195.082l-208.114,-61.193l-61.193,208.114l208.114,61.193l61.193,-208.114Z" style="fill:#f9f9f9;"/><path d="M438.089,195.087l-61.187,208.114l-208.114,-61.19l269.301,-146.924Z" style="fill:#e6e6e6;fill-rule:nonzero;"/><path d="M416.053,210.377l-175.797,-51.692l-39.528,134.431l175.798,51.691l39.527,-134.43Z" style="fill:#87aaff;"/><path d="M316.497,273.252c0.076,0.137 0.155,0.288 0.234,0.449c1.396,2.773 3.698,8.966 2.18,17.666c-2.1,12.063 -8.815,16.857 -8.815,16.857c1.892,1.59 3.729,2.399 5.492,2.241c0,0 6.056,-6.413 6.629,-19.687c0.457,-10.595 -3.014,-16.461 -4.435,-18.395c0.018,-0.043 0.032,-0.083 0.043,-0.129c0.216,-0.733 -0.205,-1.511 -0.942,-1.727c-0.737,-0.216 -1.511,0.205 -1.727,0.942c-0.216,0.737 0.205,1.511 0.942,1.727c0.132,0.038 0.265,0.056 0.399,0.056Z" style="fill:#633;fill-rule:nonzero;"/><g><path d="M316.176,271.17c0,0 -10.76,-7.013 -14.235,-2.981c-3.474,4.036 -5.729,7.466 -5.729,7.466l4.32,-3.222l-0.403,1.644l4.233,-2.528l-0.413,1.003l4.719,-1.863l-0.446,1.111l7.883,0.212l0.068,-0.841l0.003,-0.001Z" style="fill:#38c20e;fill-rule:nonzero;"/><path d="M316.871,271.037c0,0 11.926,-3.755 14.382,-1.788c2.456,1.967 4.909,7.308 4.909,7.308l-3.946,-3.283l0.23,1.554l-3.931,-2.633l0.306,0.956l-4.481,-2.047l0.327,1.061l-7.822,-0.345l0.022,-0.784l0.004,0.001Z" style="fill:#38c20e;fill-rule:nonzero;"/><path d="M316.533,271.727c0,0 8.268,0.018 11.714,4.604c3.445,4.582 3.121,8.772 3.121,8.772c-1.475,-1.748 -2.118,-3.834 -4.417,-5.244l-0.169,2.075l-2.819,-4.629l-0.413,1.302l-2.528,-3.075l-0.345,1.247l-3.165,-3.222c0,0 -1.842,-1.385 -0.981,-1.831l0.003,0l0,0.001l-0.001,0Z" style="fill:#38c20e;fill-rule:nonzero;"/><path d="M315.895,271.608c0,0 -8.264,-0.205 -11.833,4.284c-3.564,4.489 -3.355,8.686 -3.355,8.686c1.522,-1.709 2.219,-3.777 4.557,-5.121l0.111,2.083l2.942,-4.553l0.377,1.317l2.607,-3.006l0.313,1.256l3.247,-3.136c0.003,-0.004 1.88,-1.338 1.034,-1.81Z" style="fill:#38c20e;fill-rule:nonzero;"/><path d="M316.421,270.469c0,0 -2.083,-9.229 -3.596,-9.675c-1.514,-0.446 -8.502,3.398 -8.502,3.398l-1.798,2.162l4.589,-1.421l-0.399,1.367l4.258,-1.238l-0.374,1.136c0,0 1.554,-0.227 2.73,1.363c1.176,1.59 2.852,3.607 2.852,3.607l0.604,-0.183l-0.359,-0.518l-0.004,0l0,0.002l-0.001,0Z" style="fill:#38c20e;fill-rule:nonzero;"/><path d="M321.078,262.359c-1.461,0.798 -3.863,6.485 -4.6,8.722c-0.226,0.69 0.313,0.266 0.313,0.266c0,0 1.878,-3.233 3.039,-3.096c1.161,0.14 1.565,1.222 1.565,1.222l-0.169,-2.32c1.903,0.241 3.467,1.266 3.413,1.107l-0.582,-1.698l3.571,1.77c-0.295,-2.014 -4.862,-6.898 -6.55,-5.977l0,0.004Z" style="fill:#38c20e;fill-rule:nonzero;"/></g><circle cx="316.559" cy="271.63" r="1.574" style="fill:#27a600;"/><path d="M315.291,277.117c-0.765,-0.056 -1.335,-0.812 -1.271,-1.688c0.063,-0.877 0.736,-1.543 1.501,-1.488c0.765,0.056 1.335,0.812 1.272,1.689c-0.064,0.876 -0.737,1.542 -1.502,1.487Z" style="fill:#d7680f;"/><ellipse cx="315.088" cy="275.152" rx="0.645" ry="0.738" style="fill:#e59c0b;"/><path d="M317.155,275.43c-0.765,-0.056 -1.335,-0.812 -1.271,-1.689c0.063,-0.876 0.736,-1.542 1.501,-1.487c0.766,0.055 1.335,0.812 1.272,1.688c-0.064,0.877 -0.737,1.543 -1.502,1.488Z" style="fill:#d7680f;"/><ellipse cx="316.949" cy="273.451" rx="0.645" ry="0.738" style="fill:#e59c0b;"/><path d="M313.739,274.373c-0.661,-0.389 -0.837,-1.32 -0.391,-2.077c0.445,-0.758 1.344,-1.057 2.005,-0.668c0.661,0.389 0.837,1.32 0.391,2.077c-0.445,0.757 -1.344,1.057 -2.005,0.668Z" style="fill:#d7680f;"/><path d="M314.062,273.16c-0.308,-0.181 -0.389,-0.613 -0.182,-0.965c0.207,-0.352 0.624,-0.491 0.932,-0.311c0.307,0.181 0.389,0.614 0.182,0.966c-0.208,0.352 -0.625,0.491 -0.932,0.31Z" style="fill:#e59c0b;"/><path d="M305.847,299.23c29.768,8.754 51.908,25.809 55.018,40.971l-123.459,-36.299c10.822,-11.067 38.669,-13.423 68.441,-4.672Z" style="fill:#fac014;fill-rule:nonzero;"/><path d="M340.621,234.533c0.176,0.327 0.359,0.679 0.55,1.057c3.276,6.506 8.668,21.018 5.11,41.424c-4.927,28.286 -20.672,39.522 -20.672,39.522c4.435,3.73 8.74,5.628 12.875,5.254c0,0 14.199,-15.037 15.544,-46.164c1.071,-24.844 -7.071,-38.598 -10.404,-43.14c0.04,-0.097 0.076,-0.194 0.104,-0.298c0.507,-1.73 -0.482,-3.542 -2.212,-4.05c-1.73,-0.51 -3.542,0.478 -4.054,2.208c-0.507,1.73 0.482,3.546 2.212,4.054c0.313,0.093 0.629,0.137 0.938,0.133l0.009,0Z" style="fill:#633;fill-rule:nonzero;"/><g><path d="M339.873,229.656c0,0 -25.229,-16.451 -33.372,-6.992c-8.146,9.459 -13.429,17.504 -13.429,17.504l10.128,-7.56l-0.945,3.863l9.93,-5.927l-0.971,2.352l11.069,-4.37l-1.05,2.607l18.49,0.493l0.155,-1.975l-0.005,0.005Z" style="fill:#38c20e;fill-rule:nonzero;"/><path d="M341.499,229.336c0,0 27.966,-8.808 33.728,-4.19c5.758,4.614 11.505,17.137 11.505,17.137l-9.25,-7.7l0.543,3.643l-9.222,-6.172l0.723,2.244l-10.509,-4.805l0.773,2.489l-18.342,-0.809l0.047,-1.838l0.004,0.001Z" style="fill:#38c20e;fill-rule:nonzero;"/><path d="M340.707,230.962c0,0 19.392,0.043 27.47,10.789c8.077,10.746 7.319,20.564 7.319,20.564c-3.452,-4.1 -4.967,-8.988 -10.358,-12.289l-0.392,4.866l-6.611,-10.857l-0.967,3.057l-5.927,-7.207l-0.812,2.924l-7.423,-7.56c0,0 -4.316,-3.247 -2.305,-4.291l0.006,0.004Z" style="fill:#38c20e;fill-rule:nonzero;"/><path d="M339.219,230.685c0,0 -19.385,-0.478 -27.746,10.048c-8.365,10.527 -7.869,20.363 -7.869,20.363c3.56,-4.003 5.208,-8.851 10.681,-12.009l0.259,4.877l6.902,-10.674l0.881,3.082l6.117,-7.046l0.733,2.945l7.621,-7.355c0,0 4.402,-3.129 2.417,-4.23l0.004,-0.001Z" style="fill:#38c20e;fill-rule:nonzero;"/><path d="M340.452,228.013c0,0 -4.884,-21.644 -8.433,-22.69c-3.549,-1.043 -19.939,7.97 -19.939,7.97l-4.219,5.064l10.764,-3.326l-0.942,3.204l9.98,-2.899l-0.874,2.661c0,0 3.636,-0.532 6.399,3.197c2.762,3.73 6.69,8.462 6.69,8.462l1.417,-0.431l-0.841,-1.208l-0.002,-0.004Z" style="fill:#38c20e;fill-rule:nonzero;"/><path d="M351.368,208.994c-3.42,1.867 -9.06,15.202 -10.785,20.442c-0.536,1.622 0.726,0.626 0.726,0.626c0,0 4.402,-7.585 7.128,-7.251c2.726,0.331 3.672,2.866 3.672,2.866l-0.388,-5.441c4.463,0.572 8.128,2.967 7.998,2.6l-1.371,-3.982l8.376,4.158c-0.682,-4.731 -11.397,-16.179 -15.356,-14.018Z" style="fill:#38c20e;fill-rule:nonzero;"/><circle cx="340.758" cy="230.744" r="3.688" style="fill:#38c20e;"/></g><path d="M337.789,243.6c-1.793,-0.13 -3.127,-1.903 -2.978,-3.957c0.148,-2.055 1.725,-3.617 3.518,-3.487c1.793,0.13 3.128,1.903 2.979,3.958c-0.149,2.054 -1.726,3.616 -3.519,3.486Z" style="fill:#d7680f;"/><path d="M337.203,240.714c-0.835,-0.06 -1.456,-0.886 -1.386,-1.842c0.069,-0.956 0.803,-1.683 1.637,-1.623c0.835,0.061 1.456,0.886 1.387,1.842c-0.07,0.956 -0.803,1.683 -1.638,1.623Z" style="fill:#e59c0b;"/><path d="M342.157,239.623c-1.793,-0.13 -3.128,-1.904 -2.979,-3.958c0.149,-2.055 1.726,-3.617 3.519,-3.487c1.792,0.13 3.127,1.903 2.978,3.958c-0.149,2.054 -1.725,3.616 -3.518,3.487Z" style="fill:#d7680f;"/><path d="M341.561,236.736c-0.835,-0.06 -1.456,-0.886 -1.387,-1.842c0.069,-0.956 0.803,-1.683 1.638,-1.623c0.834,0.061 1.456,0.886 1.386,1.842c-0.069,0.956 -0.803,1.684 -1.637,1.623Z" style="fill:#e59c0b;"/><path d="M334.158,237.189c-1.549,-0.911 -1.96,-3.092 -0.916,-4.868c1.045,-1.775 3.15,-2.477 4.7,-1.566c1.549,0.911 1.96,3.093 0.916,4.868c-1.045,1.776 -3.15,2.477 -4.7,1.566Z" style="fill:#d7680f;"/><path d="M334.917,234.332c-0.722,-0.424 -0.913,-1.44 -0.427,-2.266c0.486,-0.826 1.466,-1.153 2.188,-0.729c0.721,0.424 0.912,1.44 0.426,2.266c-0.486,0.826 -1.466,1.153 -2.187,0.729Z" style="fill:#e59c0b;"/><circle cx="277.613" cy="208.665" r="16.699" style="fill:#fac014;"/><path d="M254.209,205.2c5.258,1.547 8.815,6.096 9.355,11.229c0.999,-0.018 2.021,0.111 3.035,0.41c3.24,0.953 5.635,3.391 6.665,6.355c1.946,-1.453 4.528,-2.007 7.035,-1.27c3.197,0.938 5.359,3.705 5.686,6.826c0.611,-0.011 1.229,0.068 1.849,0.248c3.237,0.953 5.093,4.348 4.14,7.588c-0.273,0.928 -0.748,1.741 -1.364,2.41l-19.439,-5.714l-8.329,-2.449l-37.342,-10.977c-0.036,-1.01 0.086,-2.05 0.388,-3.075c1.5,-5.1 6.848,-8.02 11.951,-6.521c0.536,0.155 1.046,0.356 1.532,0.593c3.035,-4.88 9.056,-7.351 14.839,-5.65l-0.001,-0.003Z" style="fill:#bae6ff;fill-rule:nonzero;"/><rect x="103.422" y="132.654" width="235.015" height="235.015" style="fill:#f9f9f9;"/><rect x="121.669" y="155.283" width="198.521" height="151.812" style="fill:#87aaff;"/><path d="M320.193,236.133l0,70.962l-161.243,0c11.211,-58.472 50.592,-101.665 97.472,-101.665c24.203,0 46.408,11.512 63.771,30.703Z" style="fill:#048c75;fill-rule:nonzero;"/><path d="M249.717,307.095l-128.049,0l0,-48.844c13.159,-8.502 27.894,-13.267 43.464,-13.267c35.475,0.001 66.657,24.741 84.585,62.111Z" style="fill:#00cc96;fill-rule:nonzero;"/><circle cx="175.791" cy="195.82" r="18.097" style="fill:#ffe347;"/><path d="M150.401,199.367c5.937,0 11.023,3.639 13.152,8.812c1.035,-0.327 2.14,-0.503 3.28,-0.503c3.658,0 6.895,1.806 8.873,4.568c1.576,-2.108 4.09,-3.47 6.923,-3.47c3.61,0 6.704,2.216 7.995,5.359c0.629,-0.198 1.299,-0.306 1.996,-0.306c3.657,0 6.625,2.963 6.625,6.625c0,1.046 -0.244,2.039 -0.676,2.92l-21.953,0l-9.409,0l-42.168,0c-0.349,-1.043 -0.536,-2.158 -0.536,-3.316c0,-5.761 4.668,-10.43 10.43,-10.43c0.604,0 1.194,0.054 1.77,0.151c1.664,-6.005 7.162,-10.41 13.698,-10.41Z" style="fill:#bae6ff;fill-rule:nonzero;"/></svg>