<?xml version="1.0" encoding="UTF-8" standalone="no"?><!DOCTYPE svg PUBLIC "-//W3C//DTD SVG 1.1//EN" "http://www.w3.org/Graphics/SVG/1.1/DTD/svg11.dtd"><svg width="100%" height="100%" viewBox="0 0 512 512" version="1.1" xmlns="http://www.w3.org/2000/svg" xmlns:xlink="http://www.w3.org/1999/xlink" xml:space="preserve" style="fill-rule:evenodd;clip-rule:evenodd;stroke-linejoin:round;stroke-miterlimit:1.41421;"><rect x="122.491" y="143.23" width="290.997" height="243.686" style="fill:#fff;"/><path d="M256,0c-141.383,0 -256,114.617 -256,256c0,141.383 114.617,256 256,256c141.383,0 256,-114.617 256,-256c0,-141.383 -114.617,-256 -256,-256Zm24.875,269.313l-96,64c-2.672,1.781 -5.766,2.687 -8.875,2.687c-2.594,0 -5.188,-0.625 -7.547,-1.891c-5.203,-2.789 -8.453,-8.211 -8.453,-14.109l0,-128c0,-5.898 3.25,-11.32 8.453,-14.109c5.188,-2.781 11.516,-2.484 16.422,0.797l96,64c4.453,2.968 7.125,7.96 7.125,13.312c0,5.352 -2.672,10.344 -7.125,13.313Zm87.125,50.687c0,8.836 -7.156,16 -16,16l-16,0c-8.844,0 -16,-7.164 -16,-16l0,-128c0,-8.836 7.156,-16 16,-16l16,0c8.844,0 16,7.164 16,16l0,128Z" style="fill:#0f5ea8;fill-rule:nonzero;"/></svg>