<?xml version="1.0" encoding="UTF-8" standalone="no"?><!DOCTYPE svg PUBLIC "-//W3C//DTD SVG 1.1//EN" "http://www.w3.org/Graphics/SVG/1.1/DTD/svg11.dtd"><svg width="100%" height="100%" viewBox="0 0 58 58" version="1.1" xmlns="http://www.w3.org/2000/svg" xmlns:xlink="http://www.w3.org/1999/xlink" xml:space="preserve" style="fill-rule:evenodd;clip-rule:evenodd;stroke-linejoin:round;stroke-miterlimit:1.41421;"><circle cx="29" cy="29" r="29" style="fill:#0f5ea8;"/><g><g><path d="M33.608,33.848c0,0.326 -0.373,0.59 -0.834,0.59l-10.831,0c-0.46,0 -0.833,-0.264 -0.833,-0.59l0,-7.672c0,-0.326 0.373,-0.59 0.833,-0.59l10.831,0c0.461,0 0.834,0.264 0.834,0.59l0,7.672Z" style="fill:#fff;fill-rule:nonzero;"/><circle cx="24.234" cy="23.205" r="2.083" style="fill:#fff;"/><circle cx="29.962" cy="22.684" r="2.604" style="fill:#fff;"/><path d="M38.294,34.699c0,0 -0.069,0.52 -0.555,0.52c-0.486,0 -3.611,-2.914 -3.611,-3.298l0,-3.818c0,-0.384 3.055,-3.299 3.611,-3.299c0.555,0 0.555,0.521 0.555,0.521l0,9.374Z" style="fill:#fff;fill-rule:nonzero;"/></g><g><path d="M17.192,15.853c6.433,-5.819 16.061,-5.908 22.584,-0.596l-5.17,0.196c-0.667,0.027 -1.184,0.578 -1.157,1.246c0.027,0.649 0.561,1.156 1.201,1.156c0.018,0 0.027,0 0.045,0l7.937,-0.293c0.65,-0.027 1.157,-0.552 1.157,-1.202l0,-0.089c0,-0.017 0,-0.026 0,-0.044l0,-0.009l-0.294,-7.848c-0.026,-0.668 -0.587,-1.184 -1.245,-1.157c-0.668,0.027 -1.184,0.578 -1.157,1.246l0.187,4.921c-3.23,-2.643 -7.208,-4.174 -11.461,-4.387c-5.268,-0.267 -10.331,1.539 -14.238,5.081c-5.374,4.867 -7.652,12.27 -5.944,19.318c0.134,0.552 0.623,0.916 1.166,0.916c0.098,0 0.187,-0.009 0.285,-0.035c0.64,-0.16 1.041,-0.81 0.881,-1.451c-1.495,-6.193 0.498,-12.698 5.223,-16.969Z" style="fill:#fff;fill-rule:nonzero;"/><path d="M48.363,24.609c-0.16,-0.641 -0.81,-1.041 -1.451,-0.881c-0.64,0.16 -1.041,0.81 -0.881,1.451c1.504,6.193 -0.498,12.698 -5.223,16.969c-3.319,2.998 -7.483,4.476 -11.63,4.476c-3.96,0 -7.911,-1.344 -11.096,-3.996l5.232,-0.471c0.658,-0.063 1.148,-0.641 1.086,-1.308c-0.063,-0.668 -0.641,-1.148 -1.308,-1.086l-7.911,0.712c-0.659,0.062 -1.148,0.641 -1.086,1.308l0.712,7.911c0.054,0.622 0.579,1.094 1.193,1.094c0.035,0 0.071,0 0.106,-0.009c0.659,-0.062 1.148,-0.641 1.086,-1.308l-0.427,-4.814c3.23,2.616 7.19,4.138 11.416,4.351c0.338,0.018 0.677,0.027 1.006,0.027c4.903,0 9.566,-1.797 13.232,-5.108c5.374,-4.867 7.652,-12.261 5.944,-19.318Z" style="fill:#fff;fill-rule:nonzero;"/></g></g></svg>