<?xml version="1.0" encoding="UTF-8" standalone="no"?><!DOCTYPE svg PUBLIC "-//W3C//DTD SVG 1.1//EN" "http://www.w3.org/Graphics/SVG/1.1/DTD/svg11.dtd"><svg width="100%" height="100%" viewBox="0 0 58 58" version="1.1" xmlns="http://www.w3.org/2000/svg" xmlns:xlink="http://www.w3.org/1999/xlink" xml:space="preserve" style="fill-rule:evenodd;clip-rule:evenodd;stroke-linejoin:round;stroke-miterlimit:1.41421;"><circle cx="29" cy="29" r="29" style="fill:#0f5ea8;"/><path d="M16.685,20.185l-8.152,0c-1.139,0 -2.061,0.922 -2.061,2.06l0,12.531c0,1.137 0.922,2.06 2.061,2.06l8.152,0c0.367,0 0.728,0.098 1.045,0.284l13.062,12.161c1.374,0.808 3.105,-0.182 3.105,-1.775l0,-37.991c0,-1.594 -1.731,-2.584 -3.105,-1.776l-13.062,12.162c-0.317,0.186 -0.678,0.284 -1.045,0.284l0,0Z" style="fill:#fff;fill-rule:nonzero;"/><path d="M41.284,41.775c-0.251,0 -0.502,-0.096 -0.693,-0.287c-0.383,-0.383 -0.383,-1.002 0,-1.385c6.11,-6.111 6.11,-16.054 0,-22.164c-0.383,-0.383 -0.383,-1.002 0,-1.385c0.383,-0.383 1.002,-0.383 1.385,0c6.874,6.875 6.874,18.059 0,24.934c-0.192,0.191 -0.442,0.287 -0.692,0.287Z" style="fill:#830012;fill-rule:nonzero;"/><path d="M37.815,37.815c-0.25,0 -0.501,-0.096 -0.692,-0.287c-0.383,-0.383 -0.383,-1.002 0,-1.385c4.209,-4.208 4.209,-11.057 0,-15.266c-0.383,-0.383 -0.383,-1.002 0,-1.385c0.383,-0.383 1.002,-0.383 1.385,0c4.973,4.973 4.973,13.064 0,18.036c-0.191,0.191 -0.442,0.287 -0.693,0.287l0,0Z" style="fill:#830012;fill-rule:nonzero;"/></svg>